<?xml version="1.0" standalone="no"?>
<!DOCTYPE svg PUBLIC "-//W3C//DTD SVG 20010904//EN"
 "http://www.w3.org/TR/2001/REC-SVG-20010904/DTD/svg10.dtd">
<svg version="1.0" xmlns="http://www.w3.org/2000/svg"
 width="188.000000pt" height="167.000000pt" viewBox="0 0 188.000000 167.000000"
 preserveAspectRatio="xMidYMid meet">
<metadata>
Created by potrace 1.15, written by Peter Selinger 2001-2017
</metadata>
<g transform="translate(0.000000,167.000000) scale(0.100000,-0.100000)"
fill="#000000" stroke="none">
<path d="M835 1390 c-344 -62 -575 -370 -500 -665 24 -93 64 -164 137 -240 79
-83 147 -126 265 -168 82 -29 98 -31 223 -31 125 0 141 2 223 31 118 42 186
85 265 168 203 213 203 497 0 710 -121 128 -270 194 -456 200 -59 2 -129 0
-157 -5z m85 -175 l0 -95 -47 6 c-27 3 -65 10 -86 15 l-38 10 18 31 c35 60
108 124 146 127 4 1 7 -42 7 -94z m153 61 c15 -12 43 -44 63 -71 39 -55 37
-59 -36 -69 -25 -4 -57 -9 -72 -12 l-28 -6 0 97 c0 95 0 96 23 89 12 -4 35
-16 50 -28z m-438 -191 c-6 -24 -23 -116 -30 -167 l-6 -38 -99 0 -98 0 12 53
c16 66 51 137 93 187 l33 38 50 -27 c41 -21 50 -30 45 -46z m834 -51 c14 -27
30 -72 37 -101 l12 -53 -98 0 -99 0 -6 38 c-7 52 -24 143 -30 167 -5 16 4 25
42 46 l48 26 35 -37 c19 -20 46 -59 59 -86z m-680 26 c31 -5 73 -12 94 -15
l37 -6 0 -79 0 -80 -120 0 -121 0 6 38 c15 99 29 152 38 152 6 0 36 -4 66 -10z
m429 -47 c6 -32 14 -75 17 -95 l6 -38 -121 0 -120 0 0 80 0 79 33 5 c17 2 55
9 82 14 94 17 91 18 103 -45z m-613 -250 c7 -52 24 -144 30 -168 5 -16 -4 -25
-45 -46 l-50 -27 -33 38 c-42 50 -77 121 -93 187 l-12 53 98 0 99 0 6 -37z
m315 -43 l0 -79 -37 -6 c-21 -3 -63 -10 -94 -15 -30 -6 -60 -10 -66 -10 -9 0
-23 53 -38 153 l-6 37 121 0 120 0 0 -80z m315 43 c-15 -100 -29 -153 -38
-153 -6 0 -36 4 -66 10 -31 5 -73 12 -93 15 l-38 6 0 79 0 80 120 0 121 0 -6
-37z m271 -16 c-16 -66 -51 -137 -93 -187 l-33 -38 -50 27 c-41 21 -50 30 -45
46 6 24 23 116 30 168 l6 37 99 0 98 0 -12 -53z m-586 -283 c0 -94 0 -95 -22
-88 -36 11 -76 46 -114 99 -28 41 -32 50 -19 57 12 7 90 22 143 27 9 1 12 -24
12 -95z m213 75 c41 -11 41 -9 -5 -75 -32 -45 -71 -77 -106 -88 -22 -7 -22 -6
-22 88 l0 96 48 -6 c26 -3 64 -10 85 -15z"/>
</g>
</svg>
