<?xml version="1.0" standalone="no"?>
<!DOCTYPE svg PUBLIC "-//W3C//DTD SVG 20010904//EN"
 "http://www.w3.org/TR/2001/REC-SVG-20010904/DTD/svg10.dtd">
<svg version="1.0" xmlns="http://www.w3.org/2000/svg"
 width="164.000000pt" height="206.000000pt" viewBox="0 0 164.000000 206.000000"
 preserveAspectRatio="xMidYMid meet">
<metadata>
Created by potrace 1.15, written by Peter Selinger 2001-2017
</metadata>
<g transform="translate(0.000000,206.000000) scale(0.100000,-0.100000)"
fill="#000000" stroke="none">
<path d="M823 1676 c-109 -35 -144 -100 -151 -283 l-4 -123 -79 0 -79 0 0
-110 0 -110 80 0 80 0 0 -320 0 -320 120 0 120 0 0 320 0 320 89 0 88 0 7 78
c4 42 9 92 12 110 l6 32 -102 0 -102 0 3 85 c3 51 9 89 17 97 8 8 46 14 97 17
l85 3 0 109 0 109 -122 -1 c-71 0 -141 -6 -165 -13z"/>
</g>
</svg>
