<?xml version="1.0" standalone="no"?>
<!DOCTYPE svg PUBLIC "-//W3C//DTD SVG 20010904//EN"
 "http://www.w3.org/TR/2001/REC-SVG-20010904/DTD/svg10.dtd">
<svg version="1.0" xmlns="http://www.w3.org/2000/svg"
 width="167.000000pt" height="129.000000pt" viewBox="0 0 167.000000 129.000000"
 preserveAspectRatio="xMidYMid meet">
<metadata>
Created by potrace 1.15, written by Peter Selinger 2001-2017
</metadata>
<g transform="translate(0.000000,129.000000) scale(0.100000,-0.100000)"
fill="#000000" stroke="none">
<path d="M240 1038 c-33 -17 -51 -35 -67 -68 -23 -43 -23 -52 -23 -380 0 -328
0 -337 23 -380 16 -33 34 -51 67 -68 44 -22 45 -22 550 -22 505 0 506 0 550
23 33 16 51 34 68 67 22 43 22 52 22 380 0 328 0 337 -23 380 -16 33 -34 51
-67 68 -44 22 -45 22 -550 22 -505 0 -506 0 -550 -22z m985 -97 c-25 -24 -429
-331 -435 -331 -6 0 -410 307 -434 331 -6 5 166 9 434 9 268 0 440 -4 435 -9z
m-706 -258 c146 -113 258 -193 271 -193 13 0 125 80 271 193 137 105 254 194
260 195 6 3 9 -97 7 -306 -2 -244 -6 -312 -17 -325 -12 -15 -61 -17 -521 -17
-460 0 -509 2 -521 17 -11 13 -15 81 -17 325 -2 209 1 309 7 306 6 -1 123 -90
260 -195z"/>
</g>
</svg>
