<?xml version="1.0" standalone="no"?>
<!DOCTYPE svg PUBLIC "-//W3C//DTD SVG 20010904//EN"
 "http://www.w3.org/TR/2001/REC-SVG-20010904/DTD/svg10.dtd">
<svg version="1.0" xmlns="http://www.w3.org/2000/svg"
 width="164.000000pt" height="155.000000pt" viewBox="0 0 164.000000 155.000000"
 preserveAspectRatio="xMidYMid meet">
<metadata>
Created by potrace 1.15, written by Peter Selinger 2001-2017
</metadata>
<g transform="translate(0.000000,155.000000) scale(0.100000,-0.100000)"
fill="#000000" stroke="none">
<path d="M989 1186 c-117 -41 -180 -128 -182 -248 0 -56 -1 -58 -27 -58 -47 0
-183 39 -255 74 -79 37 -178 109 -224 162 l-31 35 -16 -37 c-36 -85 -13 -199
55 -276 l31 -36 -32 7 c-18 5 -43 11 -55 15 -28 9 -29 -1 -8 -70 19 -65 72
-126 137 -158 48 -24 50 -26 22 -27 -16 -1 -39 0 -51 1 -27 2 -29 -10 -9 -48
32 -61 136 -131 195 -132 36 0 10 -25 -63 -59 -76 -36 -144 -52 -224 -53 -34
0 -62 -3 -62 -5 0 -2 33 -19 72 -38 296 -136 625 -82 844 140 126 127 207 302
220 478 l7 86 59 61 c33 34 58 63 56 65 -2 2 -26 -2 -53 -10 -65 -20 -86 -20
-56 1 22 16 81 100 81 116 0 5 -17 0 -38 -11 -20 -10 -56 -24 -79 -30 -38 -11
-45 -9 -85 17 -78 53 -154 65 -229 38z"/>
</g>
</svg>
